# xmcd CD database file generated by Grip 3.0.3
# 
# Track frame offsets:
#       182
#       24027
#       47887
#       78442
#       102030
#       120365
#       144697
#       164700
#       182205
#       201695
# 
# Disc length: 3051 seconds
# 
# Revision: 2
# Processed by: cddbd v1.4PL0 Copyright (c) Steve Scherf et al.
# Submitted via: Grip 3.0.3
# 
DISCID=880be90a
DTITLE=Mo Foster - Southern Reunion
DYEAR=1991
DGENRE=Blues
TTITLE0=Gil
TTITLE1=Blue
TTITLE2=Achill Island
TTITLE3=Waves
TTITLE4=Tricotism
TTITLE5=A Notional Anthem
TTITLE6=Southern Reunion
TTITLE7=Grand Unified Boogie
TTITLE8=Fractal Landscape
TTITLE9=Shin-Kan-Sen
EXTD=
EXTT0=
EXTT1=
EXTT2=
EXTT3=
EXTT4=
EXTT5=
EXTT6=
EXTT7=
EXTT8=
EXTT9=
PLAYORDER=
